<svg width="196" height="49" viewBox="0 0 196 49" fill="none" xmlns="http://www.w3.org/2000/svg">
<path d="M83.0195 31L77.1406 16.498H73.8398L68.1758 31H71.6816L72.6191 28.4023H78.4785L79.416 31H83.0195ZM75.5391 20.2578L77.5801 25.9219H73.498L75.5391 20.2578ZM92.9219 21.7227C92.1406 20.7852 90.793 20.2383 89.2402 20.2383C87.5898 20.2383 86.252 20.7363 85.2461 21.7422C84.2305 22.748 83.7227 24.0859 83.7227 25.7363C83.7227 27.377 84.2012 28.6953 85.1484 29.6914C86.0957 30.6973 87.3555 31.1953 88.918 31.1953C89.748 31.1953 90.5 31.0586 91.1836 30.7852C91.8574 30.5215 92.375 30.1406 92.7363 29.6621V35.0039H95.7441V20.4434H93.1172L92.9219 21.7227ZM87.5703 27.8848C87.0332 27.3477 86.7598 26.625 86.7598 25.7363C86.7598 24.8281 87.0332 24.1055 87.5801 23.5488C88.127 22.9922 88.8496 22.7188 89.7383 22.7188C90.627 22.7188 91.3496 22.9824 91.9062 23.5098C92.4629 24.0371 92.7363 24.7305 92.7363 25.5801V25.7754C92.7363 26.6641 92.4531 27.3672 91.8965 27.8945C91.3398 28.4316 90.6074 28.6953 89.7188 28.6953C88.8301 28.6953 88.1074 28.4219 87.5703 27.8848ZM98.2637 26.7031C98.2637 28.0996 98.6836 29.2031 99.5234 29.9941C100.363 30.7949 101.604 31.1953 103.244 31.1953C104.807 31.1953 106.037 30.8145 106.926 30.0527C107.814 29.3008 108.264 28.1777 108.264 26.7031V20.4434H105.266V26.6641C105.266 27.8848 104.592 28.6367 103.264 28.6367C102.043 28.6367 101.262 27.9629 101.262 26.6641V20.4434H98.2637V26.7031ZM113.762 31.1953C114.592 31.1953 115.344 31.0293 116.027 30.6875C116.701 30.3457 117.189 29.9062 117.482 29.3594L117.648 31H120.266V24.5156C120.256 21.6641 118.664 20.2383 115.48 20.2383C113.977 20.2383 112.775 20.5801 111.887 21.2539C110.988 21.9375 110.52 22.8457 110.48 23.9785H113.322C113.371 23.1582 114.143 22.6211 115.363 22.6211C116.623 22.6211 117.248 23.1777 117.248 24.2812V24.4766L114.025 24.8184C112.863 24.9258 111.955 25.2773 111.281 25.8535C110.607 26.4297 110.266 27.1914 110.266 28.1387C110.266 29.0566 110.598 29.7988 111.252 30.3555C111.906 30.9121 112.746 31.1953 113.762 31.1953ZM114.68 28.9199C113.771 28.9199 113.283 28.4902 113.283 27.7969C113.283 27.1133 113.781 26.7227 114.768 26.6152L117.248 26.3418V26.6152C117.219 27.2207 116.965 27.7578 116.496 28.2168C116.018 28.6855 115.412 28.9199 114.68 28.9199ZM138.352 16.498H135.354L131.457 28.9004L127.717 16.498H124.572L122.561 31H124.611L126.34 18.3633L130.236 31H132.58L136.516 18.5195L138.137 31H140.256L138.352 16.498ZM145.783 31.1953C146.672 31.1953 147.492 31 148.234 30.5996C148.967 30.209 149.484 29.6914 149.777 29.0371L149.885 31H151.662V24.6426C151.662 21.8691 150.197 20.4824 147.258 20.4824C145.861 20.4824 144.729 20.8047 143.879 21.4395C143.029 22.0742 142.58 22.9336 142.541 23.998H144.416C144.445 23.4219 144.719 22.9629 145.217 22.6211C145.715 22.2793 146.359 22.1035 147.16 22.1035C148.84 22.0938 149.68 22.8652 149.68 24.418V24.7207L146.145 25.1211C143.791 25.3555 142.385 26.4395 142.385 28.2754C142.385 29.1641 142.707 29.8672 143.342 30.3945C143.977 30.9316 144.797 31.1953 145.783 31.1953ZM146.32 29.6035C145.1 29.6035 144.396 29.0371 144.396 28.0996C144.406 27.1816 145.129 26.6348 146.584 26.459L149.68 26.0781V26.4785C149.67 27.2305 149.357 27.9336 148.742 28.5977C148.127 29.2715 147.326 29.6035 146.32 29.6035ZM159.631 20.5215C158.303 20.5215 157.277 21.1758 156.799 22.3965L156.574 20.6777H154.855V31H156.838V25.7754C156.838 24.7891 157.082 23.9785 157.561 23.3438C158.039 22.709 158.762 22.3965 159.719 22.3965C159.963 22.3965 160.168 22.4062 160.334 22.4355V20.5996C160.148 20.5508 159.914 20.5215 159.631 20.5215ZM166.467 25.502L171.271 20.6777H168.967L164.494 25.1016V16H162.512V31H164.494V26.0781L169.113 30.9805H171.496L166.467 25.502ZM180.656 27.9434C180.227 28.9297 179.113 29.5645 177.697 29.5645C176.652 29.5645 175.832 29.2715 175.217 28.6953C174.602 28.1191 174.299 27.2891 174.299 26.2246V25.9805H182.424C182.492 25.6094 182.521 25.3262 182.521 25.1211C182.521 23.7441 182.062 22.6309 181.145 21.7715C180.217 20.9121 179.025 20.4824 177.561 20.4824C175.998 20.4824 174.729 20.9707 173.752 21.957C172.766 22.9434 172.277 24.2422 172.277 25.834C172.277 27.4355 172.775 28.7246 173.762 29.7109C174.748 30.6973 176.057 31.1953 177.697 31.1953C178.928 31.1953 179.992 30.9121 180.881 30.3359C181.77 29.7695 182.355 28.9688 182.639 27.9434H180.656ZM177.521 22.1035C178.371 22.1035 179.084 22.3379 179.641 22.7969C180.197 23.2656 180.48 23.8613 180.48 24.584H174.357C174.504 23.832 174.865 23.2363 175.441 22.7773C176.018 22.3281 176.711 22.1035 177.521 22.1035ZM183.615 16.498V18.2754H188.215V31H190.295V18.2754H194.875V16.498H183.615Z" fill="black"/>
<path fill-rule="evenodd" clip-rule="evenodd" d="M45.8936 24.5C45.8936 10.969 40.9926 0 34.9468 0C31.5924 0 28.5904 3.37668 26.5824 8.69412C25.2641 6.77457 23.6906 5.6594 22.0008 5.6594C17.3534 5.6594 13.5859 14.0946 13.5859 24.4998C13.5859 34.9051 17.3534 43.3403 22.0008 43.3403C23.6906 43.3403 25.264 42.2251 26.5823 40.3057C28.5904 45.6232 31.5924 49 34.9468 49C40.9926 49 45.8936 38.031 45.8936 24.5ZM26.5823 40.3057C24.9712 36.0392 24 30.5235 24 24.5C24 18.4764 24.9713 12.9606 26.5824 8.69412C28.8899 12.0539 30.4157 17.8779 30.4157 24.4998C30.4157 31.1218 28.8898 36.9459 26.5823 40.3057Z" fill="black"/>
<circle cx="3" cy="24" r="3" fill="black"/>
<circle cx="75.5" cy="11.5" r="2.5" fill="black"/>
<rect x="12.3906" y="12.6592" width="7" height="23.6064" fill="#F5F5F5"/>
<path fill-rule="evenodd" clip-rule="evenodd" d="M25.2376 7.10418C24.241 6.17327 23.1473 5.65918 21.9999 5.65918C19.0498 5.65918 16.4542 9.05833 14.9518 14.2028C14.2136 13.4329 13.381 12.9998 12.5 12.9998C9.46243 12.9998 7 18.1485 7 24.4998C7 30.851 9.46243 35.9998 12.5 35.9998C13.381 35.9998 14.2137 35.5666 14.9519 34.7966C16.4542 39.941 19.0498 43.34 21.9999 43.34C23.1473 43.34 24.241 42.8259 25.2376 41.895C23.2378 37.4559 21.9994 31.3014 21.9994 24.4996C21.9994 17.6978 23.2378 11.5433 25.2376 7.10418ZM14.9519 34.7966C14.0875 31.837 13.5851 28.2997 13.5851 24.4996C13.5851 20.6996 14.0875 17.1624 14.9518 14.2028C16.7588 16.0875 18 19.9906 18 24.4998C18 29.0089 16.7588 32.9119 14.9519 34.7966Z" fill="black"/>
</svg>
